<?xml version="1.0" encoding="utf-8"?>
<!-- Generator: Adobe Illustrator 25.2.0, SVG Export Plug-In . SVG Version: 6.00 Build 0)  -->
<svg version="1.1" id="Layer_1" xmlns="http://www.w3.org/2000/svg" xmlns:xlink="http://www.w3.org/1999/xlink" x="0px" y="0px"
	 viewBox="0 0 214 26" style="enable-background:new 0 0 214 26;" xml:space="preserve">
<style type="text/css">
	.st0{fill:#FFFFFF;}
</style>
<g>
	<path class="st0" d="M35.9,8.3c-0.6-0.7-1.3-1.2-2.1-1.5c-0.8-0.4-1.7-0.5-2.7-0.5c-1.1,0-2.1,0.2-3,0.7c-0.9,0.5-1.6,1.2-2.1,2.2
		c-0.2,0.3-0.3,0.7-0.5,1.1V6.7h-2.9v19.5h3.6V19c0.5,0.7,1.1,1.3,1.9,1.7c0.9,0.4,1.9,0.7,2.9,0.7c1,0,1.9-0.2,2.7-0.6
		c0.8-0.4,1.5-0.9,2.1-1.6c0.6-0.7,1-1.4,1.3-2.3c0.3-0.9,0.5-1.8,0.5-2.9v-0.5c0-1-0.2-2-0.5-2.8C36.9,9.7,36.5,9,35.9,8.3z
		 M33.6,16.1c-0.3,0.7-0.8,1.2-1.4,1.6c-0.6,0.4-1.3,0.6-2.1,0.6c-0.7,0-1.3-0.2-1.9-0.5c-0.6-0.3-1.1-0.8-1.5-1.3
		c-0.4-0.6-0.6-1.3-0.6-2.1v-1c0-0.9,0.2-1.6,0.6-2.2c0.4-0.6,0.9-1.1,1.5-1.4c0.6-0.3,1.3-0.5,2-0.5c0.8,0,1.5,0.2,2.1,0.6
		c0.6,0.4,1,0.9,1.4,1.6c0.3,0.7,0.5,1.4,0.5,2.4C34.1,14.6,33.9,15.4,33.6,16.1z"/>
	<path class="st0" d="M49.5,7c-1-0.4-2.2-0.6-3.7-0.6c-0.5,0-1,0-1.5,0c-0.5,0-1.1,0-1.6,0.1c-0.5,0-1,0.1-1.4,0.1v3.1
		c0.5,0,1-0.1,1.7-0.1c0.6,0,1.2,0,1.8-0.1c0.6,0,1.1,0,1.6,0c0.8,0,1.5,0.2,1.9,0.6c0.4,0.4,0.6,1,0.6,1.8v0.1H46
		c-1.3,0-2.4,0.2-3.3,0.5c-0.9,0.3-1.7,0.8-2.2,1.5c-0.5,0.7-0.8,1.5-0.8,2.6c0,1,0.2,1.8,0.6,2.5c0.4,0.7,1,1.2,1.8,1.6
		c0.8,0.4,1.7,0.5,2.7,0.5c1,0,1.8-0.2,2.5-0.5c0.7-0.4,1.2-0.9,1.6-1.6c0.2-0.3,0.3-0.6,0.4-1v2.7h2.9v-8.8c0-1.3-0.2-2.4-0.7-3.2
		C51.2,8,50.4,7.4,49.5,7z M47.4,18.4c-0.4,0.2-0.9,0.3-1.4,0.3c-0.8,0-1.5-0.2-1.9-0.6c-0.4-0.4-0.7-0.9-0.7-1.6
		c0-0.6,0.2-1.2,0.7-1.6c0.4-0.4,1.1-0.6,1.9-0.6h3v1.3c0,0.8-0.2,1.4-0.5,1.8C48.2,17.9,47.8,18.2,47.4,18.4z"/>
	<path class="st0" d="M60.4,8c-0.7,0.8-1.1,1.9-1.2,3.2V6.7h-2.9v14.2H60v-7.4c0-1.2,0.3-2.2,1-2.8c0.7-0.7,1.6-1,2.8-1h1V6.5h-0.5
		C62.6,6.5,61.3,7,60.4,8z"/>
	<path class="st0" d="M71.4,2.6H68l0,4h-2.3v2.7H68l0,6.2c0,1.4,0.2,2.5,0.6,3.3c0.4,0.8,1.1,1.4,1.9,1.7c0.8,0.3,1.9,0.5,3.2,0.5h2
		v-3.1h-2.2c-0.7,0-1.2-0.2-1.6-0.6c-0.4-0.4-0.6-0.9-0.6-1.6l0-6.4h4.4V6.7h-4.4L71.4,2.6z"/>
	<path class="st0" d="M98.3,7c-0.7-0.5-1.6-0.7-2.7-0.7h-0.2c-1.1,0-2,0.2-2.7,0.7C92,7.5,91.4,8.2,91,9.2C91,9.2,91,9.3,91,9.4
		c0-0.1-0.1-0.2-0.1-0.3c-0.4-1-0.9-1.7-1.6-2.2c-0.7-0.5-1.6-0.7-2.7-0.7h-0.2c-1.1,0-2,0.2-2.7,0.7c-0.7,0.5-1.3,1.2-1.6,2.2
		c-0.1,0.3-0.2,0.6-0.3,1V6.7h-2.9v14.2h3.6v-8.4c0-0.9,0.3-1.7,0.8-2.2c0.5-0.5,1.2-0.8,2-0.8c0.8,0,1.5,0.3,1.9,0.8
		c0.5,0.5,0.7,1.2,0.7,2.1v8.5h3.6v-8.4c0-0.9,0.3-1.7,0.8-2.2c0.5-0.5,1.2-0.8,2-0.8s1.5,0.3,1.9,0.8c0.5,0.5,0.7,1.2,0.7,2.1v8.5
		h3.6v-8.1c0-1.4-0.2-2.6-0.6-3.6C99.6,8.2,99,7.5,98.3,7z"/>
	<path class="st0" d="M113,7c-1-0.4-2.2-0.6-3.7-0.6c-0.5,0-1,0-1.5,0c-0.5,0-1.1,0-1.6,0.1c-0.5,0-1,0.1-1.4,0.1v3.1
		c0.5,0,1-0.1,1.7-0.1c0.6,0,1.2,0,1.8-0.1c0.6,0,1.1,0,1.6,0c0.8,0,1.5,0.2,1.9,0.6c0.4,0.4,0.6,1,0.6,1.8v0.1h-2.9
		c-1.3,0-2.4,0.2-3.3,0.5c-0.9,0.3-1.7,0.8-2.2,1.5c-0.5,0.7-0.8,1.5-0.8,2.6c0,1,0.2,1.8,0.6,2.5c0.4,0.7,1,1.2,1.8,1.6
		c0.8,0.4,1.7,0.5,2.7,0.5c1,0,1.8-0.2,2.5-0.5c0.7-0.4,1.2-0.9,1.6-1.6c0.2-0.3,0.3-0.6,0.4-1v2.7h2.9v-8.8c0-1.3-0.2-2.4-0.7-3.2
		C114.7,8,114,7.4,113,7z M110.9,18.4c-0.4,0.2-0.9,0.3-1.4,0.3c-0.8,0-1.5-0.2-1.9-0.6c-0.4-0.4-0.7-0.9-0.7-1.6
		c0-0.6,0.2-1.2,0.7-1.6c0.4-0.4,1.1-0.6,1.9-0.6h3v1.3c0,0.8-0.2,1.4-0.5,1.8C111.7,17.9,111.3,18.2,110.9,18.4z"/>
	<path class="st0" d="M127.7,6.2h-0.2c-1.1,0-2.1,0.2-2.8,0.7c-0.8,0.5-1.3,1.2-1.7,2.2c-0.1,0.3-0.2,0.7-0.3,1V6.7h-2.9v14.2h3.6
		v-8.4c0-0.9,0.3-1.7,0.8-2.2c0.5-0.5,1.3-0.8,2.2-0.8c0.9,0,1.6,0.3,2.1,0.8c0.5,0.5,0.7,1.2,0.7,2.1v8.5h3.6v-8.1
		c0-2.2-0.4-3.8-1.3-4.9C130.7,6.8,129.4,6.2,127.7,6.2z"/>
	<path class="st0" d="M138.8,5c0.7,0,1.2-0.2,1.6-0.6c0.3-0.4,0.5-0.9,0.5-1.4s-0.2-1-0.5-1.4c-0.3-0.4-0.9-0.5-1.6-0.5
		c-0.7,0-1.2,0.2-1.6,0.5c-0.3,0.4-0.5,0.8-0.5,1.4s0.2,1.1,0.5,1.4C137.6,4.8,138.1,5,138.8,5z"/>
	<polygon class="st0" points="135.5,6.7 135.5,9.4 137.5,9.4 137.5,20.9 141.1,20.9 141.1,9.4 141.1,6.7 137.5,6.7 	"/>
	<path class="st0" d="M152.2,5h7.8v9.6c0,1-0.3,1.8-0.9,2.4c-0.6,0.6-1.4,0.9-2.3,0.9c-1,0-1.7-0.3-2.3-0.9
		c-0.6-0.6-0.9-1.4-0.9-2.4v-1.2h-3.7v0.8c0,1.5,0.3,2.8,0.9,3.8c0.6,1,1.4,1.8,2.4,2.4c1,0.5,2.3,0.8,3.6,0.8
		c1.4,0,2.6-0.3,3.6-0.8c1-0.5,1.8-1.3,2.4-2.4c0.6-1,0.9-2.3,0.9-3.8V5V4.5V1.8h-11.5V5z"/>
	<path class="st0" d="M180.3,8.4c-0.7-0.7-1.5-1.2-2.4-1.6c-1-0.4-2-0.6-3.2-0.6s-2.3,0.2-3.2,0.6c-1,0.4-1.8,0.9-2.4,1.6
		c-0.7,0.7-1.2,1.5-1.5,2.4c-0.4,0.9-0.5,1.8-0.5,2.8v0.5c0,0.9,0.2,1.9,0.5,2.7c0.3,0.9,0.8,1.7,1.5,2.3c0.7,0.7,1.5,1.2,2.4,1.6
		c1,0.4,2.1,0.6,3.3,0.6c1.2,0,2.3-0.2,3.3-0.6c1-0.4,1.8-0.9,2.4-1.6c0.7-0.7,1.2-1.5,1.5-2.3c0.3-0.9,0.5-1.8,0.5-2.7v-0.5
		c0-1-0.2-1.9-0.5-2.8C181.5,9.8,181,9.1,180.3,8.4z M178.3,16.1c-0.3,0.7-0.8,1.2-1.4,1.6c-0.6,0.4-1.4,0.6-2.3,0.6
		s-1.6-0.2-2.3-0.6c-0.6-0.4-1.1-0.9-1.4-1.6c-0.3-0.7-0.5-1.4-0.5-2.3c0-0.9,0.2-1.6,0.5-2.3c0.3-0.7,0.8-1.2,1.4-1.6
		c0.6-0.4,1.4-0.6,2.2-0.6c0.9,0,1.6,0.2,2.2,0.6c0.6,0.4,1.1,0.9,1.4,1.6c0.3,0.7,0.5,1.4,0.5,2.3
		C178.7,14.6,178.6,15.4,178.3,16.1z"/>
	<polygon class="st0" points="198.5,6.7 194.7,6.7 189.2,13.5 189.2,1.8 185.6,1.8 185.6,20.9 189.2,20.9 189.2,14.2 190.8,14.2 
		195.5,20.9 199.6,20.9 193.6,12.7 	"/>
	<path class="st0" d="M212.3,8.8C211.8,8,211,7.4,210.1,7c-1-0.4-2.2-0.6-3.7-0.6c-0.5,0-1,0-1.5,0c-0.5,0-1.1,0-1.6,0.1
		c-0.5,0-1,0.1-1.4,0.1v3.1c0.5,0,1-0.1,1.7-0.1c0.6,0,1.2,0,1.8-0.1c0.6,0,1.1,0,1.6,0c0.8,0,1.5,0.2,1.9,0.6
		c0.4,0.4,0.6,1,0.6,1.8v0.1h-2.9c-1.3,0-2.4,0.2-3.3,0.5c-0.9,0.3-1.7,0.8-2.2,1.5c-0.5,0.7-0.8,1.5-0.8,2.6c0,1,0.2,1.8,0.6,2.5
		c0.4,0.7,1,1.2,1.8,1.6c0.8,0.4,1.7,0.5,2.7,0.5c1,0,1.8-0.2,2.5-0.5c0.7-0.4,1.2-0.9,1.6-1.6c0.2-0.3,0.3-0.6,0.4-1v2.7h2.9v-8.8
		C213,10.7,212.8,9.7,212.3,8.8z M208,18.4c-0.4,0.2-0.9,0.3-1.4,0.3c-0.8,0-1.5-0.2-1.9-0.6c-0.4-0.4-0.7-0.9-0.7-1.6
		c0-0.6,0.2-1.2,0.7-1.6c0.4-0.4,1.1-0.6,1.9-0.6h3v1.3c0,0.8-0.2,1.4-0.5,1.8C208.8,17.9,208.4,18.2,208,18.4z"/>
	<path class="st0" d="M10.5,6.5c1.2,2.7,2.5,5.3,3.7,8l-2.1-0.8l4.3,7.2h3.7L13.4,1.8H7.3L0.8,20.9h3.5l4.4-7.3
		c-0.5,0.2-1.4,0.6-1.9,0.8L10.5,6.5z"/>
</g>
</svg>
